<svg xmlns="http://www.w3.org/2000/svg" xmlns:xlink="http://www.w3.org/1999/xlink" width="500" zoomAndPan="magnify" viewBox="0 0 375 374.999991" height="500" preserveAspectRatio="xMidYMid meet" version="1.0"><rect x="-37.5" width="450" fill="#ffffff" y="-37.499999" height="449.999989" fill-opacity="1"/><rect x="-37.5" width="450" fill="#000000" y="-37.499999" height="449.999989" fill-opacity="1"/><path fill="#ffffff" d="M 364.683594 168.117188 C 364.214844 169.855469 320.832031 249.515625 319.730469 251.417969 C 318.859375 252.917969 314.988281 259.027344 313.957031 259.828125 C 312.886719 260.628906 309.515625 262.429688 307.78125 262.5625 C 306.046875 262.664062 255.953125 262.164062 255.953125 262.164062 C 255.953125 262.164062 254.085938 265.601562 254.316406 265.933594 C 254.550781 266.269531 255.117188 266.871094 255.117188 266.871094 C 255.117188 266.871094 298.171875 266.96875 300.140625 267.4375 C 302.109375 267.90625 305.613281 267.671875 307.582031 270.472656 C 309.550781 273.242188 310.484375 272.542969 311.285156 279.316406 C 312.121094 286.058594 311.921875 293.234375 311.519531 297.671875 C 311.085938 302.679688 310.050781 306.21875 309.183594 308.6875 C 307.382812 313.726562 304.910156 317.464844 302.007812 319.53125 C 299.070312 321.636719 287.691406 324.671875 282.585938 326.039062 C 277.445312 327.441406 264.664062 330.710938 253.71875 330.710938 C 242.769531 330.710938 237.230469 330.246094 227.917969 329.3125 C 218.609375 328.375 213.871094 328.078125 210.230469 326.976562 C 206.261719 325.773438 199.152344 323.769531 195.28125 324.707031 C 191.441406 325.640625 189.773438 326.976562 185.570312 328.144531 C 181.398438 329.3125 173.253906 329.679688 169.515625 329.542969 C 166.878906 329.445312 157.5 329.644531 149.558594 327.707031 C 142.082031 325.90625 136.011719 321.9375 134.640625 321.167969 C 129.066406 317.898438 125.0625 314.828125 120.523438 310.523438 C 117.789062 307.917969 117.152344 308.085938 114.917969 306.082031 C 114.082031 305.316406 112.816406 309.121094 110.078125 313.023438 C 106.707031 317.863281 103.335938 320.367188 100.632812 322.570312 C 94.027344 327.976562 86.117188 330.578125 80.511719 330.710938 C 74.9375 330.8125 66.359375 329.644531 61.71875 327.410156 C 58.050781 325.671875 49.90625 319.5 45.835938 315.628906 C 39.59375 309.71875 29.148438 296.238281 26.546875 291.464844 C 17.96875 275.546875 13.164062 264.167969 11.996094 256.257812 C 8.558594 233.53125 9.292969 221.25 10.324219 211.371094 C 11.726562 197.886719 17.101562 180.765625 19.269531 174.625 C 22.207031 166.417969 29.316406 156.136719 31.316406 152.832031 C 33.320312 149.496094 36.421875 145.457031 37.757812 143.621094 C 38.425781 142.6875 42.0625 138.683594 43.230469 137.28125 C 43.597656 136.847656 45.5 134.84375 45.5 134.84375 C 45.5 134.84375 48.972656 131.507812 49.339844 131.207031 C 50.273438 130.339844 52.945312 128.070312 54.410156 127.203125 C 58.449219 124.832031 60.554688 127.535156 60.917969 128.804688 C 61.121094 129.640625 61.421875 130.140625 61.054688 132.941406 C 60.519531 136.980469 60.152344 138.515625 59.984375 140.917969 C 59.917969 141.753906 59.75 143.320312 59.683594 144.625 C 59.617188 145.925781 59.683594 150.832031 59.683594 151.730469 C 59.71875 153.035156 60.117188 156.769531 60.320312 158.105469 C 60.519531 159.441406 60.820312 162.34375 61.085938 163.914062 C 61.386719 165.683594 61.789062 168.585938 62.019531 169.652344 C 62.15625 170.21875 62.789062 173.222656 62.855469 173.558594 C 63.054688 174.257812 63.390625 175.359375 64.125 177.664062 C 64.390625 178.496094 64.957031 180.03125 65.292969 180.667969 C 65.925781 181.96875 67.292969 184.570312 67.726562 184.570312 C 68.429688 184.570312 69.03125 181.132812 69.164062 179.796875 C 69.230469 179.230469 69.261719 178.496094 69.164062 177.5625 C 68.929688 175.460938 68.429688 174.558594 68.160156 173.222656 C 67.996094 172.355469 67.5625 171.523438 67.527344 170.085938 C 67.527344 169.285156 67.695312 168.664062 68.027344 168.21875 C 68.363281 167.785156 69.628906 167.851562 70.132812 168.050781 C 70.765625 168.320312 71.265625 168.417969 72.46875 169.285156 C 78.742188 173.824219 80.375 176.796875 80.375 176.796875 C 83.515625 181.300781 85.484375 184.703125 87.652344 189.976562 C 88.417969 191.847656 90.121094 196.351562 92.625 205.363281 C 92.691406 205.664062 94.058594 211.070312 94.695312 213.472656 C 94.960938 214.472656 95.59375 218.84375 95.726562 219.679688 C 95.863281 220.515625 96.160156 223.382812 96.230469 223.816406 C 96.394531 224.953125 97.296875 233.929688 97.296875 233.929688 C 97.296875 233.929688 102.601562 198.621094 108.878906 179.433594 C 115.152344 160.242188 132.9375 127.804688 135.375 122.5625 C 137.84375 117.324219 146.15625 103.941406 149.160156 99.136719 C 153.398438 92.394531 158.769531 85.1875 161.539062 80.011719 C 165.613281 72.4375 167.847656 71.269531 168.179688 66.730469 C 168.546875 62.226562 169.214844 54.882812 171.320312 52.082031 C 173.421875 49.308594 177.160156 45.804688 181.265625 44.90625 C 184.933594 44.105469 189.207031 43.835938 192.945312 45.570312 C 196.683594 47.308594 197.816406 48.644531 199.453125 50.644531 C 201.085938 52.648438 201.320312 55.117188 203.191406 56.984375 C 205.058594 58.855469 214.371094 62.558594 220.878906 65.59375 L 227.386719 68.597656 C 227.386719 68.597656 239.433594 74.039062 243.503906 77.109375 C 248.445312 80.847656 256.6875 88.390625 261.09375 93.027344 C 265.53125 97.667969 278.546875 112.550781 283.652344 123.964844 C 288.792969 135.34375 290.09375 137.480469 292.261719 144.890625 C 295.101562 154.5 295.902344 159.507812 294.597656 164.214844 C 294.597656 164.347656 294.5 164.515625 294.433594 164.746094 C 294.066406 165.949219 292.597656 170.519531 288.125 173.15625 C 287.390625 173.59375 285.65625 174.59375 283.21875 174.828125 C 281.652344 174.960938 280.484375 174.757812 279.214844 174.492188 C 275.910156 173.824219 273.507812 172.589844 272.804688 172.089844 C 270.371094 170.289062 268 167.785156 266.53125 166.617188 C 266.066406 166.382812 258.390625 161.042969 255.019531 159.640625 C 251.648438 158.238281 247.007812 155.4375 243.503906 154.402344 C 240.035156 153.367188 234.5625 151.132812 233.058594 151.132812 C 231.558594 151.132812 228.621094 149.761719 226.082031 149.863281 C 223.515625 149.996094 221.777344 150.097656 220.609375 151.832031 C 219.441406 153.601562 218.273438 154.269531 218.84375 156.839844 C 219.441406 159.40625 219.777344 163.113281 221.3125 166.617188 C 223.582031 171.824219 224.515625 174.492188 226.285156 177.664062 C 231.992188 187.84375 235.027344 189.011719 240.769531 198.121094 C 246.675781 207.5 249.445312 215.773438 250.945312 220.347656 C 252.183594 224.152344 254.050781 229.660156 254.550781 235.699219 L 255.152344 242.90625 C 255.152344 242.90625 254.550781 243.476562 255.953125 244.175781 L 257.355469 244.875 L 278.179688 247.445312 L 301.339844 249.082031 L 303.578125 247.878906 L 349.464844 164.28125 C 349.464844 164.28125 349.566406 163.8125 350.398438 163.714844 C 351.199219 163.578125 350.632812 163.578125 351.199219 163.578125 C 351.765625 163.578125 364.582031 163.8125 365.285156 164.414062 C 365.984375 164.980469 365.050781 166.382812 364.582031 168.117188 Z M 364.683594 168.117188 " fill-opacity="1" fill-rule="nonzero"/></svg>