<?xml version="1.0" standalone="no"?>
<!DOCTYPE svg PUBLIC "-//W3C//DTD SVG 20010904//EN"
 "http://www.w3.org/TR/2001/REC-SVG-20010904/DTD/svg10.dtd">
<svg version="1.0" xmlns="http://www.w3.org/2000/svg"
 width="512.000000pt" height="512.000000pt" viewBox="0 0 512.000000 512.000000"
 preserveAspectRatio="xMidYMid meet">

<g transform="translate(0.000000,512.000000) scale(0.100000,-0.100000)"
fill="#000000" stroke="none">
<path d="M2345 4709 c-524 -81 -973 -460 -1140 -962 -59 -177 -70 -251 -70
-457 0 -206 11 -280 70 -457 43 -130 100 -243 186 -368 53 -78 166 -302 515
-1025 246 -509 454 -936 463 -949 25 -39 89 -79 145 -92 44 -10 62 -9 110 5
108 32 91 1 591 1036 351 728 466 956 517 1030 127 183 212 398 244 611 21
144 14 371 -15 504 -123 561 -548 985 -1111 1110 -88 20 -412 29 -505 14z
m340 -340 c358 -44 667 -258 832 -574 172 -330 160 -737 -31 -1050 -255 -421
-731 -618 -1197 -495 -351 92 -639 361 -753 705 -89 266 -70 554 52 808 136
283 378 486 682 573 146 41 268 51 415 33z"/>
<path d="M2477 3900 c-110 -28 -218 -124 -257 -228 -28 -74 -25 -202 8 -275
31 -70 111 -149 185 -183 53 -24 75 -28 147 -28 110 0 186 32 260 110 77 82
95 128 95 249 0 121 -18 167 -95 249 -85 90 -228 135 -343 106z"/>
<path d="M2455 3039 c-230 -35 -435 -164 -554 -348 l-40 -63 42 -36 c238 -200
562 -281 868 -217 151 32 286 95 421 198 l67 50 -21 39 c-65 115 -201 238
-334 303 -132 65 -316 95 -449 74z"/>
</g>
</svg>
